# xmcd CD database file
#
# Track frame offsets:
#	150
#	12852
#	27425
#	50376
#	62173
#	85920
#
# Disc length: 1356 seconds
#
# Revision: 0
# Processed by: cddbd v1.5.1PL2 Copyright (c) Steve Scherf et al.
# Submitted via: CDex 1.51
#
DISCID=44054a06
DTITLE=The White Stripes - Walking With A Ghost
DYEAR=2006
DGENRE=Blues
TTITLE0=Walking With A Ghost
TTITLE1=Same Boy You’ve Always Known (Live)
TTITLE2=As Ugly As I Seem (Live)
TTITLE3=The Denial Twist (Live)
TTITLE4=Screwdriver (Live)
TTITLE5=Shelter Of Your Arms
EXTD=YEAR: 2006
EXTT0=
EXTT1=
EXTT2=
EXTT3=
EXTT4=
EXTT5=
PLAYORDER=
